<svg xmlns="http://www.w3.org/2000/svg" width="185.369" height="164.919" viewBox="0 0 185.369 164.919"><path d="M92.684,164.919a10.87,10.87,0,0,1-7.166-2.693c-7.488-6.548-14.708-12.7-21.078-18.129l-.033-.028c-18.675-15.915-34.8-29.658-46.023-43.2C5.842,85.736,0,71.386,0,55.709,0,40.477,5.223,26.425,14.705,16.139A49.847,49.847,0,0,1,51.784,0,46.626,46.626,0,0,1,80.909,10.054a59.588,59.588,0,0,1,11.775,12.3,59.594,59.594,0,0,1,11.776-12.3A46.626,46.626,0,0,1,133.586,0a49.849,49.849,0,0,1,37.079,16.139c9.483,10.286,14.7,24.338,14.7,39.569,0,15.677-5.841,30.027-18.384,45.161-11.221,13.54-27.346,27.282-46.018,43.2-6.381,5.436-13.612,11.6-21.118,18.163A10.878,10.878,0,0,1,92.684,164.919Zm-40.9-154.06A39.107,39.107,0,0,0,22.687,23.5c-7.628,8.275-11.83,19.713-11.83,32.21,0,13.185,4.9,24.977,15.888,38.234,10.62,12.815,26.415,26.275,44.7,41.862l.034.028c6.394,5.449,13.642,11.627,21.185,18.223,7.589-6.609,14.848-12.8,21.255-18.254,18.288-15.586,34.082-29.044,44.7-41.859,10.986-13.257,15.886-25.049,15.886-38.234,0-12.5-4.2-23.935-11.83-32.21a39.1,39.1,0,0,0-29.1-12.641A36.013,36.013,0,0,0,111.1,18.643a52.69,52.69,0,0,0-12.53,14.5,6.854,6.854,0,0,1-11.775,0,52.642,52.642,0,0,0-12.53-14.5A36.012,36.012,0,0,0,51.784,10.859Zm0,0" fill="#fff"/></svg>