<svg id="play-button" xmlns="http://www.w3.org/2000/svg" width="328.817" height="328.817" viewBox="0 0 328.817 328.817">
  <g id="Group_18" data-name="Group 18">
    <g id="Group_17" data-name="Group 17">
      <path id="Path_1" data-name="Path 1" d="M164.409,0C73.748,0,0,73.755,0,164.409S73.748,328.817,164.409,328.817s164.409-73.755,164.409-164.409S255.069,0,164.409,0Zm0,315.117c-83.1,0-150.708-67.607-150.708-150.708S81.308,13.7,164.409,13.7,315.117,81.308,315.117,164.409,247.51,315.117,164.409,315.117Z" fill="#fff"/>
      <path id="Path_2" data-name="Path 2" d="M298.462,212.076l-95.9-61.653A6.85,6.85,0,0,0,192,156.183V279.489a6.849,6.849,0,0,0,10.557,5.76l95.9-61.653a6.848,6.848,0,0,0,0-11.52ZM205.7,266.939V168.733l76.385,49.1Z" transform="translate(-68.693 -53.427)" fill="#fff"/>
    </g>
  </g>
</svg>
